<?xml version="1.0" encoding="UTF-8" standalone="no"?><!DOCTYPE svg PUBLIC "-//W3C//DTD SVG 1.1//EN"
    "http://www.w3.org/Graphics/SVG/1.1/DTD/svg11.dtd"><!-- Created with Vectornator (http://vectornator.io/) -->
<svg height="100%" stroke-miterlimit="10"
    style="fill-rule:nonzero;clip-rule:evenodd;stroke-linecap:round;stroke-linejoin:round;"
    version="1.1" viewBox="0 0 512 512" width="100%" xml:space="preserve"
    xmlns="http://www.w3.org/2000/svg" xmlns:xlink="http://www.w3.org/1999/xlink">
<defs>
<linearGradient gradientTransform="matrix(1 0 0 1 0 0)" gradientUnits="userSpaceOnUse"
    id="LinearGradient" x1="257.407" x2="254.545" y1="245.691" y2="433.497">
<stop offset="0" stop-color="#d225b3" />
        <stop offset="1" stop-color="#9c25d2" />
</linearGradient>
</defs>
        <g id="图层-1">
<path
    d="M256 247.139C231.532 247.139 211.697 227.304 211.697 202.837C211.697 178.369 231.532 158.534 256 158.534C280.468 158.534 300.303 178.369 300.303 202.837C300.303 227.304 280.468 247.139 256 247.139M256 78.7886C187.49 78.7886 131.952 134.327 131.952 202.837C131.952 295.873 256 433.211 256 433.211C256 433.211 380.048 295.873 380.048 202.837C380.048 134.327 324.51 78.7886 256 78.7886Z"
    fill="#d96bc6" fill-rule="nonzero" opacity="1" stroke="none" />
                <path
                    d="M256 78.7188C252.629 78.7187 249.303 78.8613 246 79.125L132.531 192.625C132.255 196.005 131.906 199.361 131.906 202.812C131.906 212.993 133.449 223.715 136.094 234.719L287.781 82.9688C277.619 80.2787 267.008 78.7187 256 78.7188ZM238.188 80.0312C218.737 82.8302 200.723 90.0868 185.281 100.812C157.654 120.003 138.336 150.173 133.312 184.969L238.188 80.0312ZM293.281 84.4062L137.5 240.281C140.24 250.328 144.033 260.59 148.344 270.875L212.094 207.062C211.957 205.644 211.687 204.267 211.688 202.812C211.687 178.333 231.521 158.5 256 158.5C257.444 158.5 258.81 158.771 260.219 158.906L321.531 97.5625C312.76 92.089 303.337 87.5695 293.281 84.4062ZM325.812 100.219L266.281 159.781C277.521 162.462 287.057 169.389 293.156 178.812L350 121.938C342.912 113.708 334.811 106.355 325.812 100.219ZM353.156 125.719L295.625 183.281C298.548 189.195 300.312 195.769 300.312 202.812C300.312 211.498 297.723 219.536 293.406 226.375L368.688 151.062C364.504 141.969 359.313 133.467 353.156 125.719ZM370.844 155.844L186 340.781C191.518 349.348 197.083 357.592 202.594 365.406L379.25 188.625C377.942 177.15 375.063 166.15 370.844 155.844ZM379.719 195.094L205.438 369.469C211.249 377.601 216.493 384.507 221.812 391.438L375.094 238.094C378.266 225.902 380.094 214.034 380.094 202.812C380.094 200.206 379.877 197.66 379.719 195.094ZM213 213.094L150.344 275.781C154.864 286.079 160.06 296.312 165.594 306.438L232 240C222.572 233.903 215.683 224.335 213 213.094ZM279.562 240.219C272.723 244.536 264.686 247.125 256 247.125C248.967 247.125 242.407 245.353 236.5 242.438L168.031 310.938C172.921 319.663 177.991 328.253 183.25 336.562L279.562 240.219ZM372 248.125L224.875 395.344C231.568 403.955 237.254 411.143 242.156 417.031L338.344 320.781C352.244 297.201 364.41 272.254 372 248.125ZM327.312 338.781L245.312 420.812C251.426 428.059 256 433.281 256 433.281C256 433.281 293.526 391.672 327.312 338.781Z"
                    fill="url(#LinearGradient)" fill-rule="nonzero" opacity="1" stroke="none" />
</g>
</svg>
